<?xml version="1.0" standalone="no"?>
<!DOCTYPE svg PUBLIC "-//W3C//DTD SVG 20010904//EN"
 "http://www.w3.org/TR/2001/REC-SVG-20010904/DTD/svg10.dtd">
<svg version="1.0" xmlns="http://www.w3.org/2000/svg"
 width="38.000000pt" height="37.000000pt" viewBox="0 0 38.000000 37.000000"
 preserveAspectRatio="xMidYMid meet">

<g transform="translate(0.000000,37.000000) scale(0.100000,-0.100000)"
fill="#000000" stroke="none">
<path d="M122 290 c-67 -41 -89 -116 -52 -177 56 -92 177 -94 237 -4 28 42 29
86 3 129 -42 68 -124 91 -188 52z m129 -5 c37 -20 69 -70 69 -111 0 -47 -38
-96 -88 -114 -37 -13 -47 -13 -84 0 -49 17 -88 67 -88 112 0 94 106 157 191
113z"/>
<path d="M162 248 c-16 -16 -15 -38 4 -59 14 -16 13 -19 -11 -36 -56 -39 -71
-54 -32 -32 30 17 40 19 52 9 12 -10 18 -10 30 0 12 10 22 8 52 -9 39 -22 24
-7 -32 32 -24 17 -25 20 -11 36 27 30 13 71 -24 71 -9 0 -21 -5 -28 -12z m53
-28 c0 -18 -6 -26 -23 -28 -13 -2 -25 3 -28 12 -10 26 4 48 28 44 17 -2 23
-10 23 -28z m-11 -58 c2 -4 0 -14 -5 -22 -8 -13 -10 -13 -18 0 -10 15 -6 30 9
30 5 0 11 -4 14 -8z"/>
</g>
</svg>
